<?xml version="1.0" standalone="no"?>
<!DOCTYPE svg PUBLIC "-//W3C//DTD SVG 20010904//EN"
 "http://www.w3.org/TR/2001/REC-SVG-20010904/DTD/svg10.dtd">
<svg version="1.0" xmlns="http://www.w3.org/2000/svg"
 width="225.000000pt" height="225.000000pt" viewBox="0 0 225.000000 225.000000"
 preserveAspectRatio="xMidYMid meet">

<g transform="translate(0.000000,225.000000) scale(0.100000,-0.100000)"
fill="#000000" stroke="none">
<path d="M975 2239 c-595 -80 -1027 -624 -967 -1217 27 -272 135 -503 324
-691 445 -444 1162 -438 1599 15 230 238 344 560 311 878 -31 292 -139 516
-343 711 -159 152 -320 239 -529 286 -101 22 -297 32 -395 18z m494 -597 l324
-202 -668 0 -668 0 329 205 c181 113 336 204 344 202 8 -2 161 -95 339 -205z
m-688 -412 c177 -110 332 -200 344 -200 12 0 167 90 344 200 177 110 324 200
326 200 3 0 5 -153 5 -340 0 -371 -1 -378 -57 -416 -27 -18 -55 -19 -618 -19
-563 0 -591 1 -618 19 -56 38 -57 45 -57 416 0 187 2 340 5 340 2 0 149 -90
326 -200z"/>
</g>
</svg>
